<?xml version="1.0" standalone="no"?>
<!DOCTYPE svg PUBLIC "-//W3C//DTD SVG 20010904//EN"
 "http://www.w3.org/TR/2001/REC-SVG-20010904/DTD/svg10.dtd">
<svg version="1.0" xmlns="http://www.w3.org/2000/svg"
 width="300.000000pt" height="300.000000pt" viewBox="0 0 300.000000 300.000000"
 preserveAspectRatio="xMidYMid meet">
<metadata>
Created by potrace 1.11, written by Peter Selinger 2001-2013
</metadata>
<g transform="translate(0.000000,300.000000) scale(0.100000,-0.100000)"
fill="#000000" stroke="none">
<path d="M470 1726 l0 -946 333 0 c226 1 361 6 422 15 258 40 458 152 588 333
17 23 34 42 39 42 18 0 228 -83 305 -121 87 -43 159 -104 189 -160 11 -22 19
-64 22 -121 4 -76 1 -93 -20 -140 -47 -103 -134 -162 -273 -186 -52 -9 -246
-8 -312 1 -90 12 -186 35 -273 65 l-85 29 0 -106 0 -106 55 -22 c107 -43 228
-58 450 -57 192 0 210 2 291 27 267 81 402 257 394 514 -7 265 -130 386 -549
542 -60 23 -110 41 -111 41 -2 0 4 26 11 58 8 31 17 80 21 107 9 55 11 335 3
405 l-5 45 50 3 c99 6 294 -30 414 -78 l52 -20 10 28 c43 108 59 166 47 174
-15 9 -153 56 -189 64 -103 23 -202 32 -314 31 l-130 -2 -33 59 c-119 211
-287 336 -537 399 -71 18 -122 20 -472 24 l-393 5 0 -946z m765 731 c185 -44
306 -121 393 -251 50 -73 50 -88 4 -118 -132 -88 -192 -197 -198 -358 -6 -171
41 -296 149 -396 l59 -55 -43 -55 c-95 -123 -242 -204 -439 -239 -19 -3 -133
-9 -252 -12 l-218 -5 0 757 0 758 243 -6 c155 -4 264 -11 302 -20z m507 -609
c2 -70 -2 -251 -6 -273 -3 -11 -5 -31 -6 -45 l-1 -25 -24 28 c-62 70 -64 245
-3 327 29 40 38 38 40 -12z"/>
</g>
</svg>
